<?xml version="1.0" encoding="utf-8"?><!-- Uploaded to: SVG Repo, www.svgrepo.com, Generator: SVG Repo Mixer Tools -->
<svg fill="#000000" width="800px" height="800px" viewBox="0 0 14 14" role="img" focusable="false" aria-hidden="true" xmlns="http://www.w3.org/2000/svg"><path d="M 7.5291661,11.795909 C 7.4168129,11.419456 7.3406864,10.225625 7.3406864,9.29222 c 0,-0.11438 -0.029767,-0.221667 -0.081573,-0.314893 0.051933,-0.115773 0.08132,-0.24358 0.08132,-0.378226 l 0,-1.709364 c 0,-0.511733 -0.416226,-0.927959 -0.9279585,-0.927959 l -0.8772919,0 C 5.527203,5.856265 5.52163,5.751005 5.518336,5.648406 5.514666,5.556066 5.513396,5.470313 5.513016,5.385826 5.511876,5.296776 5.5132694,5.224073 5.517196,5.160866 5.524666,5.024193 5.541009,4.891827 5.565076,4.773647 5.591043,4.646981 5.619669,4.564774 5.630689,4.535134 c 0.0019,-0.0052 0.0038,-0.01013 0.00557,-0.01533 0.00709,-0.02039 0.0133,-0.03559 0.017227,-0.04446 C 6.0127121,3.789698 5.750766,2.938499 5.0665137,2.5737 4.8642273,2.466034 4.6367344,2.409034 4.4084814,2.408147 4.1801018,2.409034 3.9526089,2.466037 3.7504492,2.5737 3.066197,2.938499 2.8042508,3.789698 3.1634768,4.475344 c 0.00393,0.0087 0.01026,0.02394 0.017227,0.04446 0.00177,0.0052 0.00367,0.01013 0.00557,0.01533 0.01102,0.02951 0.039647,0.111847 0.065613,0.238513 0.024067,0.11818 0.040533,0.250546 0.04788,0.387219 0.00393,0.06321 0.00532,0.135914 0.00418,0.22496 -5.066e-4,0.08449 -0.00165,0.17024 -0.00532,0.26258 -0.00329,0.102599 -0.00887,0.207859 -0.016847,0.313372 l -0.8772919,0 c -0.5117324,0 -0.9279584,0.416226 -0.9279584,0.927959 l 0,1.709364 c 0,0.134646 0.029387,0.262453 0.08132,0.378226 -0.051807,0.09323 -0.081573,0.200513 -0.081573,0.314893 0,0.933278 -0.076126,2.127236 -0.1884796,2.503689 C 1.0571435,11.985782 1.0131902,12.254315 1.0562568,12.453434 1.1748167,13 1.7477291,13 1.9359554,13 c 0.437506,0 1.226258,-0.07676 1.2595712,-0.08005 0.05092,-0.0051 0.1001932,-0.01596 0.1468065,-0.03179 0.049907,0.01241 0.1018398,0.01913 0.1546597,0.01925 l 0.9114918,0.0044 0.9114918,-0.0044 c 0.05282,-1.27e-4 0.1047532,-0.007 0.1546598,-0.01925 0.046613,0.01583 0.095886,0.02673 0.1468064,0.03179 C 5.6547556,12.92315 6.4436346,13 6.8810138,13 c 0.1882264,0 0.7612654,0 0.8796986,-0.546566 0.043067,-0.199119 -7.6e-4,-0.467652 -0.2315463,-0.657525 z m -1.833117,0.502486 -0.3480794,-1.518478 -0.1741664,1.503658 -1.6846638,-7.6e-4 -0.3680927,-0.885399 0,0.900979 c 0,0 -1.7672504,0.173279 -1.3861111,0 0.3811394,-0.173154 0.3811394,-2.980082 0.3811394,-2.980082 l 2.2924095,0 2.2924095,0 c 0,0 0,2.806928 0.3811394,2.980082 0.381266,0.173279 -1.3859844,0 -1.3859844,0 z M 10.219055,1 7.3387864,1 5.8932688,5.377719 l 0.9449318,0 c 0.3536527,0 0.6674055,0.17138 0.8650052,0.434593 l 0.04864,-0.18392 0.9107318,-2.702555 0.2962729,-0.0016 0.9543051,2.889769 -2.2085564,0 C 7.839499,5.994632 7.9204389,6.217692 7.9204389,6.459878 l 0,1.257038 2.3962751,0 0.423193,1.60917 2.218563,0 L 10.219055,1 Z"/></svg>