<?xml version="1.0" encoding="utf-8"?><!-- Uploaded to: SVG Repo, www.svgrepo.com, Generator: SVG Repo Mixer Tools -->
<svg width="800px" height="800px" viewBox="-0.5 0 25 25" fill="none" xmlns="http://www.w3.org/2000/svg">
<path d="M8.93994 9.39998V5.48999C8.93994 5.20999 9.15994 4.98999 9.43994 4.98999H20.9999C21.2799 4.98999 21.4999 5.20999 21.4999 5.48999V13.09C21.4999 13.37 21.2799 13.59 20.9999 13.59L17.0599 13.6" stroke="#0F0F0F" stroke-miterlimit="10" stroke-linecap="round" stroke-linejoin="round"/>
<path d="M17.7301 8.72998L16.4301 10.03" stroke="#0F0F0F" stroke-miterlimit="10" stroke-linecap="round" stroke-linejoin="round"/>
<path d="M3 11.4H14.56C14.84 11.4 15.06 11.62 15.06 11.9V19.51C15.06 19.79 14.84 20.01 14.56 20.01H3C2.72 20.01 2.5 19.79 2.5 19.51V11.9C2.5 11.63 2.72 11.4 3 11.4Z" stroke="#0F0F0F" stroke-miterlimit="10" stroke-linecap="round" stroke-linejoin="round"/>
<path d="M19.32 10.03V7.64001C19.32 7.36001 19.1 7.14001 18.82 7.14001H16.42" stroke="#0F0F0F" stroke-miterlimit="10" stroke-linecap="round" stroke-linejoin="round"/>
</svg>