<?xml version="1.0" encoding="UTF-8" standalone="no"?>
<!-- Uploaded to: SVG Repo, www.svgrepo.com, Generator: SVG Repo Mixer Tools -->
<svg width="800px" height="800px" viewBox="0 -0.5 21 21" version="1.1" xmlns="http://www.w3.org/2000/svg" xmlns:xlink="http://www.w3.org/1999/xlink">
    
    <title>url [#1423]</title>
    <desc>Created with Sketch.</desc>
    <defs>

</defs>
    <g id="Page-1" stroke="none" stroke-width="1" fill="none" fill-rule="evenodd">
        <g id="Dribbble-Light-Preview" transform="translate(-339.000000, -600.000000)" fill="#000000">
            <g id="icons" transform="translate(56.000000, 160.000000)">
                <path d="M286.388001,443.226668 C288.054626,441.639407 290.765027,441.639407 292.431651,443.226668 L293.942296,444.665378 L295.452942,443.226668 L293.942296,441.787958 C291.439155,439.404014 287.380498,439.404014 284.877356,441.787958 C282.374215,444.171902 282.374215,448.03729 284.877356,450.421235 L286.388001,451.859945 L287.898647,450.421235 L286.388001,448.982525 C284.721377,447.395264 284.721377,444.813929 286.388001,443.226668 L286.388001,443.226668 Z M302.122644,449.578765 L300.611999,448.139038 L299.101353,449.578765 L300.611999,451.017475 C302.277554,452.603719 302.277554,455.186071 300.611999,456.773332 C298.945374,458.359576 296.233905,458.359576 294.568349,456.773332 L293.057704,455.333605 L291.54599,456.773332 L293.057704,458.212042 C295.560845,460.595986 299.619502,460.595986 302.122644,458.212042 C304.625785,455.828098 304.625785,451.96271 302.122644,449.578765 L302.122644,449.578765 Z M288.653969,443.946023 L299.856676,454.61425 L298.344962,456.053977 L287.143324,445.384733 L288.653969,443.946023 Z" id="url-[#1423]">

</path>
            </g>
        </g>
    </g>
</svg>