<svg xmlns="http://www.w3.org/2000/svg" height="48" viewBox="0 96 960 960" width="48"><path d="M480.118 726Q551 726 600.5 676.382q49.5-49.617 49.5-120.5Q650 485 600.382 435.5q-49.617-49.5-120.5-49.5Q409 386 359.5 435.618q-49.5 49.617-49.5 120.5Q310 627 359.618 676.5q49.617 49.5 120.5 49.5ZM480 652q-40 0-68-28t-28-68q0-40 28-68t68-28q40 0 68 28t28 68q0 40-28 68t-68 28Zm0 227q-154 0-278-90T17 556q61-143 185-233t278-90q154 0 278 90t185 233q-61 143-185 233t-278 90Zm0-323Zm-.08 240q120.454 0 221.267-65.5T855 556q-53-109-153.733-174.5Q600.533 316 480.08 316q-120.454 0-221.267 65.5T104 556q54 109 154.733 174.5Q359.467 796 479.92 796Z"/></svg>
