<svg xmlns="http://www.w3.org/2000/svg" height="48" viewBox="0 96 960 960" width="48"><path d="m634 624-77-76q21-44-12.5-69t-62.5-6l-70-71q15-8 33-12t35-4q71 0 120.5 49.5T650 556q0 16-4 36t-12 32Zm148 150-55-56q44-35 76.5-77t52.5-85q-52-110-150.5-175T490 316q-42 0-82 7t-59 16l-66-66q35-16 92.5-28T485 233q147 0 272 85t186 238q-25 66-67.5 121.5T782 774Zm25 227L653 849q-35 14-80 22t-93 8q-151 0-276.5-85.5T17 556q18-51 55-103t86-100L35 232l50-52 769 769-47 52ZM216 410q-36 29-66 68.5T104 556q52 111 153 175.5T488 796q27 0 55.5-3t44.5-11l-64-64q-8 4-20.5 6t-23.5 2q-70 0-120-49t-50-121q0-11 1.5-23t4.5-21L216 410Zm323 128Zm-137 69Z"/></svg>
